<svg width="16" height="16" viewBox="0 0 16 16" fill="none" xmlns="http://www.w3.org/2000/svg">
<path fill-rule="evenodd" clip-rule="evenodd" d="M2.96751 10.5599C3.32097 10.5599 3.60751 10.8465 3.60751 11.1999V12.4799C3.60751 12.6497 3.67493 12.8124 3.79498 12.9325C3.91499 13.0525 4.07777 13.1199 4.24751 13.1199H11.9275C12.0972 13.1199 12.26 13.0525 12.38 12.9325C12.5001 12.8124 12.5675 12.6497 12.5675 12.4799V11.1999C12.5675 10.8465 12.854 10.5599 13.2075 10.5599C13.561 10.5599 13.8475 10.8465 13.8475 11.1999V12.4799C13.8475 12.9891 13.6453 13.4775 13.2851 13.8376C12.9251 14.1976 12.4367 14.3999 11.9275 14.3999H4.24751C3.73831 14.3999 3.24993 14.1977 2.88986 13.8376C2.52981 13.4775 2.32751 12.9891 2.32751 12.4799V11.1999C2.32751 10.8465 2.61405 10.5599 2.96751 10.5599Z" fill="#00D390"/>
<path fill-rule="evenodd" clip-rule="evenodd" d="M4.43501 6.90743C4.68495 6.65749 5.09017 6.65749 5.34011 6.90743L8.08755 9.65488L10.835 6.90743C11.0849 6.65749 11.4902 6.65749 11.7401 6.90743C11.9901 7.15735 11.9901 7.56259 11.7401 7.81251L8.54009 11.0125C8.29017 11.2624 7.88492 11.2624 7.635 11.0125L4.43501 7.81251C4.18508 7.56259 4.18508 7.15735 4.43501 6.90743Z" fill="#00D390"/>
<path fill-rule="evenodd" clip-rule="evenodd" d="M8.08751 2.23999C8.44098 2.23999 8.72751 2.52653 8.72751 2.87999V10.56C8.72751 10.9135 8.44098 11.2 8.08751 11.2C7.73404 11.2 7.44751 10.9135 7.44751 10.56V2.87999C7.44751 2.52653 7.73404 2.23999 8.08751 2.23999Z" fill="#00D390"/>
</svg>
