<svg width="39" height="39" viewBox="0 0 39 39" fill="none" xmlns="http://www.w3.org/2000/svg">
<path fill-rule="evenodd" clip-rule="evenodd" d="M26.6392 14.5097C25.9737 14.0262 25.6506 13.2092 25.8052 12.4013L26.4402 9.08344L23.9995 6.7943H3.45852C1.55633 6.7943 0 8.35063 0 10.2528V28.9145C0 30.8167 1.55641 32.373 3.45852 32.373H6.98906V38.8702L12.3438 32.373H26.932C28.8338 32.373 30.3905 30.8165 30.3905 28.9145V13.832L28.9023 14.6513C28.1838 15.0469 27.3027 14.9918 26.6392 14.5097ZM9.56149 26.9994C9.56149 27.4087 9.22664 27.7437 8.81727 27.7437H6.62703C6.21766 27.7437 5.88281 27.4087 5.88281 26.9994V17.9463C5.88281 17.537 6.21766 17.202 6.62703 17.202H8.81727C9.22664 17.202 9.56149 17.537 9.56149 17.9463V26.9994ZM22.764 26.8016C21.4454 28.1203 16.26 28.0287 14.4237 27.6944C13.1958 27.4708 12.5785 27.0856 11.1553 26.9994L11.14 17.7964C15.383 17.1592 16.2308 14.8339 15.8662 10.5059C15.8412 10.209 16.0575 9.94539 16.3537 9.91211C19.9573 9.50711 19.2112 15.3114 18.9886 17.0398H20.5596C24.1349 16.9495 24.2684 17.718 24.4818 19.15C24.6769 20.4591 23.7459 25.7784 22.7641 26.8016H22.764ZM38.678 5.63289L35.5866 8.53227L36.3834 12.695C36.4245 12.9102 36.3428 13.1169 36.1655 13.2457C35.9883 13.3745 35.7665 13.3884 35.5745 13.2827L31.8616 11.2387L28.1488 13.2827C27.9568 13.3884 27.735 13.3745 27.5577 13.2457C27.3805 13.1169 27.2987 12.9102 27.3399 12.695L28.1366 8.53234L25.0452 5.63289C24.8854 5.48297 24.8301 5.26781 24.8978 5.05937C24.9655 4.85094 25.1368 4.70938 25.3543 4.68203L29.5595 4.15344L31.3617 0.317422C31.4549 0.119063 31.6425 0 31.8616 0C32.0808 0 32.2684 0.119063 32.3616 0.317422L34.1638 4.15344L38.3691 4.68203C38.5865 4.70938 38.7577 4.85094 38.8255 5.05937C38.8932 5.26781 38.8379 5.48297 38.678 5.63289H38.678Z" fill="url(#paint0_linear_3_1120)"/>
<defs>
<linearGradient id="paint0_linear_3_1120" x1="2.2076" y1="2.20854" x2="38.864" y2="27.9014" gradientUnits="userSpaceOnUse">
<stop stop-color="#632EE3"/>
<stop offset="1" stop-color="#9F62F2"/>
</linearGradient>
</defs>
</svg>
