<svg width="40" height="40" viewBox="0 0 40 40" fill="none" xmlns="http://www.w3.org/2000/svg">
<g clip-path="url(#clip0_3_1122)">
<path d="M39.8957 15.3438C39.6339 14.5339 38.9155 13.9586 38.0655 13.882L26.5205 12.8337L21.9552 2.14829C21.6186 1.36519 20.852 0.858276 20.0002 0.858276C19.1484 0.858276 18.3818 1.36519 18.0452 2.15012L13.48 12.8337L1.93303 13.882C1.08462 13.9604 0.368046 14.5339 0.104673 15.3438C-0.158701 16.1538 0.0845308 17.0422 0.726332 17.6022L9.45306 25.2556L6.87975 36.591C6.69145 37.4245 7.01495 38.286 7.70649 38.7859C8.07821 39.0544 8.51309 39.1912 8.95164 39.1912C9.32976 39.1912 9.70483 39.0892 10.0415 38.8878L20.0002 32.9358L29.9553 38.8878C30.6838 39.3261 31.6021 39.2861 32.2921 38.7859C32.9839 38.2845 33.3071 37.4226 33.1188 36.591L30.5455 25.2556L39.2722 17.6037C39.914 17.0422 40.1591 16.1553 39.8957 15.3438Z" fill="#FF8811"/>
</g>
<defs>
<clipPath id="clip0_3_1122">
<rect width="40" height="40" fill="white"/>
</clipPath>
</defs>
</svg>
